<svg version="1.1" id="Слой_1" xmlns="http://www.w3.org/2000/svg" xmlns:xlink="http://www.w3.org/1999/xlink" x="0px" y="0px" viewBox="0 0 129 129" style="enable-background:new 0 0 129 129;" xml:space="preserve"><g><g><path fill="#F93446" d="M64.6,6.5c-32,0-58.1,26-58.1,58.1s26,58,58.1,58s58-26,58-58S96.6,6.5,64.6,6.5z M64.6,114.5c-27.5,0-49.9-22.4-49.9-49.9s22.4-49.9,49.9-49.9s49.9,22.4,49.9,49.9S92.1,114.5,64.6,114.5z"/><path fill="#F93446" d="M59.1,35.6c-0.8-0.8-1.8-1.2-2.9-1.2c-1,0-2.1,0.4-2.9,1.2c-1.6,1.6-1.6,4.2,0,5.8l23.5,23.5L53.3,88.4c-1.6,1.6-1.6,4.2,0,5.8s4.2,1.6,5.8,0l26.4-26.4c0.8-0.8,1.2-1.8,1.2-2.9c0-1.1-0.4-2.1-1.2-2.9L59.1,35.6z"/></g></g></svg>